# xmcd CD database file
#
# Track frame offsets:
#	182
#	16667
#	30282
#	52037
#	70477
#	89530
#	110932
#	133650
#	146220
#	165835
#
# Disc length: 2382 seconds
#
# Revision: 0
# Processed by: cddbd v1.5.2PL0 Copyright (c) Steve Scherf et al.
# Submitted via: CDex 1.51
#
DISCID=88094c0a
DTITLE=THE REBELS - BANANA - THE REBELS
DYEAR=1989
DGENRE=SOCA
TTITLE0=BANANA
TTITLE1=THEM A COME
TTITLE2=POTPOURRI
TTITLE3=TIME CHANGE THE WORLD
TTITLE4=LA RUMBA DE SAN MARTIN
TTITLE5=LET US ROCK
TTITLE6=REGGAE IS THE MUSIC
TTITLE7=SOCA BACANAL
TTITLE8=MY WAY
TTITLE9=LA BAMBA
EXTD=YEAR: 1989
EXTT0=
EXTT1=
EXTT2=
EXTT3=
EXTT4=
EXTT5=
EXTT6=
EXTT7=
EXTT8=
EXTT9=
PLAYORDER=
